<svg width="414" height="896" viewBox="0 0 414 896" fill="none" xmlns="http://www.w3.org/2000/svg">
<g clip-path="url(#clip0)">
<rect width="414" height="896" fill="#FBE2DA"/>
<g clip-path="url(#clip1)">
<path d="M461.858 618.812C471.005 629.094 484.624 635.644 499.812 635.673C527.185 635.726 549.26 614.598 549.117 588.483C548.978 562.796 527.398 541.868 500.646 541.134C502.137 532.612 502.92 523.858 502.92 514.927V349.136C502.92 265.171 434.22 196.469 350.253 196.469H295.39C211.423 196.469 142.723 265.171 142.723 349.136V514.927C142.723 523.859 143.507 532.617 144.998 541.139C118.333 541.967 96.8542 562.858 96.7154 588.483C96.5737 614.599 118.648 635.726 146.02 635.673C161.157 635.644 174.734 629.138 183.88 618.915C206.067 642.684 235.704 659.417 268.968 665.283L269.03 737.932C179.714 754.534 124.26 826.254 124.26 897.964L322.915 897.995L521.569 897.964C521.569 826.291 466.175 754.604 376.939 737.952L376.877 665.249C410.109 659.341 439.705 642.585 461.858 618.812Z" fill="#FDD2C6"/>
<path d="M391.136 741.176C391.136 741.176 396.086 789.321 323.643 789.321C251.2 789.321 255.699 741.176 255.699 741.176C171.556 760.713 124.261 828.642 124.261 897.964L322.916 897.994L521.571 897.964C521.573 828.645 475.267 760.719 391.136 741.176Z" fill="#FDD2C6"/>
<path d="M498.609 538.757C504.768 538.757 509.871 533.896 510.074 527.74C510.132 525.996 510.16 524.246 510.16 522.488L510.315 357.812C510.315 270.398 438.795 198.877 351.381 198.877H294.266C206.852 198.877 135.332 270.398 135.332 357.812L135.177 522.488C135.177 524.009 135.199 525.523 135.242 527.035C135.43 533.584 140.881 538.757 147.433 538.757C153.986 538.757 145.934 372.086 223.751 316.217C242.271 302.92 279.02 382.74 301.051 368.467C317.565 357.768 299.995 329.676 299.995 329.676C299.995 329.676 335.273 368.545 351.395 358.376C368.353 347.678 351.395 318.457 351.395 318.457C351.395 318.457 383.38 372.086 405.328 357.121C427.277 342.156 401.595 318.237 403.558 315.642C408.535 309.065 429.146 317.675 434.365 321.848C505.44 378.713 498.609 538.757 498.609 538.757Z" fill="#FDD2C6"/>
<path d="M479.69 261.506C470.571 196.473 414.354 146.005 346.912 146.005H298.728C231.285 146.005 175.067 196.473 165.95 261.506H479.69Z" fill="#FDD2C6"/>
<path d="M242.277 729.511C158.173 754.337 106.885 826.141 106.885 897.973L242.277 897.994V729.511Z" fill="#FDD2C6"/>
<path d="M403.557 729.511C487.661 754.337 538.949 826.141 538.949 897.973L403.557 897.994V729.511Z" fill="#FDD2C6"/>
<path d="M150.064 667.3H-125.655C-130.882 667.3 -135.12 671.538 -135.12 676.765V888.529C-135.12 893.756 -130.882 897.994 -125.655 897.994H150.064C155.291 897.994 159.529 893.756 159.529 888.529V676.765C159.529 671.538 155.291 667.3 150.064 667.3Z" fill="#FDD2C6"/>
<path d="M-18.7246 667.3H43.134V796.319H-18.7246V667.3Z" fill="#FDD2C6"/>
<path d="M390.918 446.104C381.047 445.804 372.788 454.008 372.47 464.428C372.152 474.85 379.898 483.542 389.769 483.84C399.64 484.142 407.899 475.938 408.217 465.518C408.535 455.098 400.789 446.404 390.918 446.104Z" fill="#FDD2C6"/>
<path d="M256.645 446.104C246.773 445.804 238.515 454.008 238.197 464.428C237.881 474.85 245.625 483.542 255.496 483.84C265.367 484.142 273.626 475.938 273.944 465.518C274.26 455.098 266.516 446.404 256.645 446.104Z" fill="#FDD2C6"/>
<path d="M370.66 414.968C370.756 414.867 380.341 404.874 390.59 405.248C400.758 405.629 409.494 416.39 409.691 416.634C410.876 418.133 412.632 418.917 414.408 418.917C415.708 418.917 417.015 418.497 418.116 417.632C420.723 415.58 421.175 411.805 419.125 409.198C418.633 408.571 406.87 393.836 391.039 393.245C375.253 392.606 362.429 406.181 361.892 406.757C359.633 409.176 359.764 412.96 362.177 415.225C364.591 417.496 368.386 417.377 370.66 414.968Z" fill="#FDD2C6"/>
<path d="M256.767 393.247C240.916 392.606 228.159 406.184 227.621 406.76C225.361 409.179 225.493 412.964 227.907 415.23C230.317 417.495 234.118 417.375 236.389 414.967C236.484 414.867 246.103 404.88 256.318 405.247C266.485 405.627 275.223 416.39 275.418 416.632C276.603 418.132 278.359 418.915 280.135 418.915C281.435 418.915 282.742 418.496 283.843 417.63C286.45 415.579 286.902 411.803 284.852 409.197C284.36 408.573 272.597 393.837 256.767 393.247Z" fill="#FDD2C6"/>
<path d="M327.014 437.65C332.002 461.719 336.713 484.455 325.116 494.002C322.555 496.111 322.19 499.895 324.298 502.455C325.486 503.897 327.205 504.643 328.937 504.643C330.282 504.643 331.634 504.194 332.753 503.273C349.947 489.115 344.522 462.932 338.777 435.211C336.78 425.572 334.713 415.603 333.632 406.147C333.257 402.85 330.283 400.469 326.984 400.863C323.688 401.239 321.321 404.216 321.7 407.51C322.842 417.508 324.962 427.749 327.014 437.65Z" fill="#FDD2C6"/>
<path d="M301.181 501.635C302.043 502.066 302.96 502.269 303.862 502.269C306.065 502.269 308.187 501.051 309.239 498.947L311.752 493.922C313.233 490.954 312.032 487.347 309.066 485.864C306.101 484.383 302.491 485.583 301.008 488.55L298.495 493.575C297.013 496.543 298.214 500.15 301.181 501.635Z" fill="#FDD2C6"/>
<path d="M357.329 538.841C359.118 536.047 358.305 532.333 355.513 530.544C352.723 528.758 349.006 529.57 347.216 532.36C341.36 541.501 332.468 546.745 322.825 546.745C313.183 546.745 304.291 541.501 298.434 532.36C296.645 529.568 292.929 528.755 290.137 530.544C287.344 532.335 286.532 536.049 288.321 538.841C296.433 551.498 309.009 558.756 322.827 558.756C336.644 558.756 349.217 551.498 357.329 538.841Z" fill="#FDD2C6"/>
<path d="M405.258 723.753C403.442 723.213 401.478 723.568 399.962 724.702C398.445 725.836 397.552 727.617 397.552 729.513V736.69C396.187 736.296 394.819 735.905 393.44 735.539C393.188 735.46 392.936 735.387 392.67 735.341C389.463 734.499 386.225 733.716 382.944 733.024L382.89 670.213C413.401 663.807 440.711 648.614 462.045 627.405C471.998 636.227 485.263 641.651 499.8 641.678H499.917C515.167 641.678 529.345 635.875 539.852 625.331C549.775 615.372 555.199 602.274 555.123 588.449C554.99 563.705 537.182 542.846 513.263 536.855C514.938 534.282 515.966 531.24 516.075 527.936C516.134 526.126 516.165 524.31 516.165 522.492L516.32 357.812C516.32 322.168 504.945 289.135 485.647 262.136C485.698 261.652 485.706 261.163 485.638 260.67C475.994 191.877 416.353 140 346.914 140H298.729C229.289 140 169.649 191.877 160.005 260.672C159.936 261.161 159.944 261.649 159.996 262.133C140.699 289.132 129.329 322.165 129.329 357.806L129.172 522.488C129.172 524.067 129.196 525.641 129.241 527.205C129.342 530.779 130.524 534.102 132.458 536.879C108.598 542.909 90.8497 563.75 90.7154 588.45C90.6408 602.275 96.0649 615.374 105.988 625.332C116.494 635.878 130.673 641.679 145.922 641.679H146.038C160.529 641.651 173.757 636.261 183.698 627.492C205.066 648.705 232.418 663.892 262.972 670.264L263.026 733C258.024 734.053 253.116 735.296 248.286 736.688V729.513C248.286 727.617 247.394 725.837 245.876 724.702C244.36 723.569 242.396 723.214 240.58 723.753C212.297 732.102 186.896 745.809 165.538 764.015V676.767C165.538 668.236 158.598 661.296 150.067 661.296H-125.655C-134.186 661.296 -141.124 668.236 -141.124 676.767V888.53C-141.124 897.061 -134.186 904.001 -125.655 904.001H150.064C152.749 904.001 155.275 903.312 157.479 902.103V903.99L242.277 904H242.278C242.323 904 242.363 903.988 242.408 903.987L322.919 904L403.429 903.987C403.473 903.988 403.515 904 403.56 904L538.951 903.978C542.268 903.978 544.955 901.289 544.955 897.972C544.955 860.97 531.666 823.486 507.536 792.429C482.148 759.758 446.783 736.008 405.258 723.753ZM543.112 588.514C543.169 599.115 538.991 609.178 531.344 616.852C523.108 625.119 511.95 629.667 499.917 629.667H499.824C488.437 629.645 478.047 625.452 470.238 618.637C472.723 615.766 475.103 612.801 477.38 609.757C477.738 609.572 478.086 609.362 478.413 609.099C493.8 596.69 521.795 589.351 522.076 589.278C525.287 588.447 527.218 585.172 526.388 581.962C525.558 578.749 522.283 576.816 519.075 577.648C518.251 577.86 505.091 581.305 491.229 587.667C497.705 575.165 502.576 561.701 505.544 547.545C526.649 550.468 543 567.74 543.112 588.514ZM298.728 152.011H346.912C407.147 152.011 459.287 194.717 472.004 252.812C445.738 242.236 331.672 239.538 320.065 239.687C308.809 239.553 199.171 242.27 173.651 252.739C186.396 194.683 238.517 152.011 298.728 152.011ZM141.336 357.812C141.336 328.726 149.515 301.523 163.671 278.35C166.736 285.018 173.368 291.23 187.306 296.123C211.074 304.467 255.428 308.523 322.898 308.523C390.369 308.523 434.723 304.467 458.49 296.123C472.342 291.262 478.978 285.096 482.068 278.475C496.173 301.62 504.311 328.78 504.311 357.807L504.177 500.645C501.576 448.743 489.444 358.223 438.113 317.158C432.931 313.015 417.351 306.155 407.473 307.395C402.718 307.99 400.113 310.238 398.764 312.019C395.765 315.986 398.224 319.891 401.071 324.415C409.168 337.273 411.704 345.503 401.944 352.159C399.698 353.69 397.296 354.104 394.377 353.462C380.133 350.322 362.241 324.906 356.55 315.38C354.859 312.549 351.202 311.613 348.355 313.283C345.511 314.953 344.547 318.607 346.196 321.465C346.335 321.708 359.864 345.935 348.189 353.299C340.472 358.165 317.822 340.365 304.44 325.64C302.348 323.341 298.853 323.02 296.378 324.889C293.899 326.762 293.259 330.218 294.897 332.855C295.041 333.086 308.963 356.187 297.786 363.428C290.786 367.975 275.415 350.13 264.187 337.112C248.487 318.907 233.658 301.708 220.249 311.342C186.687 335.438 163.225 381.182 150.515 447.307C143.798 482.242 142.035 513.274 141.58 528.649C141.38 528.087 141.263 527.485 141.245 526.862C141.202 525.408 141.183 523.952 141.183 522.495L141.336 357.812ZM146.011 629.667C133.902 629.745 122.748 625.14 114.493 616.852C106.846 609.18 102.666 599.115 102.725 588.514C102.836 567.792 119.106 550.569 140.132 547.578C143.079 561.607 147.881 574.961 154.274 587.368C140.656 581.197 127.895 577.856 127.083 577.648C123.876 576.818 120.599 578.751 119.77 581.962C118.94 585.172 120.871 588.447 124.082 589.278C124.363 589.35 152.358 596.69 167.744 609.099C167.775 609.124 167.809 609.139 167.841 609.165C170.273 612.449 172.823 615.644 175.497 618.728C167.697 625.491 157.348 629.645 146.011 629.667ZM151.479 543.164C151.549 543.1 151.629 543.05 151.697 542.983C152.825 541.846 153.45 540.305 153.437 538.704C153.422 537.067 152.88 374.49 227.252 321.095C231.733 317.873 246.352 334.826 255.087 344.952C268.422 360.414 282.124 376.303 295.247 376.3C298.304 376.3 301.332 375.436 304.313 373.505C312.574 368.152 314.791 359.769 314.006 351.161C326.754 361.412 343.095 370.709 354.594 363.454C361.164 359.31 364.089 353.205 364.784 346.529C372.633 355.105 382.158 363.064 391.779 365.186C397.897 366.541 403.748 365.464 408.708 362.081C428.817 348.369 417.615 328.272 412.065 319.342C417.727 320.143 427.046 323.687 430.609 326.537C498.477 380.832 492.675 536.931 492.609 538.501C492.541 540.114 493.13 541.682 494.233 542.858C481.152 610.412 421.574 661.585 350.256 661.585H295.391C224.181 661.587 164.679 610.567 151.479 543.164ZM270.132 743.835C272.977 743.305 275.042 740.82 275.039 737.924L274.983 672.278C281.666 673.142 288.477 673.596 295.391 673.596H350.256C357.245 673.596 364.127 673.132 370.88 672.25L370.936 737.957C370.939 740.847 373 743.324 375.841 743.855C379.069 744.458 382.219 745.155 385.334 745.898C381.956 770.855 351.456 782.288 322.988 782.288C294.508 782.288 263.994 770.846 260.638 745.867C263.754 745.128 266.905 744.434 270.132 743.835ZM-12.7186 673.305H37.1294V790.313H-12.7186V673.305ZM153.525 888.529C153.525 890.436 151.973 891.989 150.064 891.989H-125.655C-127.562 891.989 -129.114 890.436 -129.114 888.529V676.765C-129.114 674.858 -127.562 673.305 -125.655 673.305H-24.7292V796.319C-24.7292 799.636 -22.0403 802.325 -18.7232 802.325H43.1355C46.4526 802.325 49.1416 799.636 49.1416 796.319V673.305H150.066C151.973 673.305 153.526 674.857 153.526 676.765V888.529H153.525ZM236.272 891.988L165.134 891.977C165.387 890.866 165.535 889.715 165.535 888.529V780.357C185.013 761.777 209.068 746.971 236.272 737.718V891.988ZM248.284 891.977V749.217C248.516 749.147 248.753 749.083 248.986 749.012C253.658 776.036 282.767 794.299 322.989 794.299C363.193 794.299 392.294 776.054 396.987 749.048C397.173 749.105 397.367 749.156 397.554 749.214V891.976L322.921 891.988L248.284 891.977ZM409.563 891.988V737.718C480.527 761.854 530.063 823.758 532.821 891.969L409.563 891.988Z" fill="#FDD2C6"/>
</g>
<path d="M172.08 406.2C172.368 406.152 172.688 406.12 173.04 406.104C173.408 406.072 173.776 406.048 174.144 406.032C174.528 406 174.896 405.984 175.248 405.984C175.6 405.968 175.912 405.96 176.184 405.96C177.512 405.96 178.616 406.168 179.496 406.584C180.392 406.984 181.104 407.56 181.632 408.312C182.176 409.048 182.56 409.936 182.784 410.976C183.008 412.016 183.12 413.176 183.12 414.456C183.12 415.624 183.008 416.744 182.784 417.816C182.576 418.872 182.2 419.808 181.656 420.624C181.112 421.424 180.376 422.064 179.448 422.544C178.52 423.024 177.352 423.264 175.944 423.264C175.736 423.264 175.456 423.256 175.104 423.24C174.752 423.224 174.384 423.2 174 423.168C173.616 423.152 173.248 423.128 172.896 423.096C172.544 423.08 172.272 423.056 172.08 423.024V406.2ZM176.496 408.744C176.24 408.744 175.976 408.752 175.704 408.768C175.448 408.768 175.248 408.784 175.104 408.816V420.384C175.152 420.4 175.232 420.416 175.344 420.432C175.472 420.432 175.6 420.44 175.728 420.456C175.872 420.456 176 420.464 176.112 420.48C176.24 420.48 176.328 420.48 176.376 420.48C177.096 420.48 177.688 420.312 178.152 419.976C178.616 419.64 178.976 419.192 179.232 418.632C179.504 418.072 179.688 417.432 179.784 416.712C179.896 415.976 179.952 415.208 179.952 414.408C179.952 413.672 179.904 412.96 179.808 412.272C179.728 411.584 179.56 410.984 179.304 410.472C179.064 409.944 178.712 409.528 178.248 409.224C177.8 408.904 177.216 408.744 176.496 408.744ZM192.988 422.112C192.588 422.464 192.044 422.752 191.356 422.976C190.668 423.2 189.948 423.312 189.196 423.312C188.364 423.312 187.644 423.168 187.036 422.88C186.444 422.592 185.956 422.176 185.572 421.632C185.188 421.088 184.9 420.432 184.708 419.664C184.532 418.88 184.444 417.992 184.444 417C184.444 414.84 184.868 413.248 185.716 412.224C186.58 411.184 187.772 410.664 189.292 410.664C189.804 410.664 190.3 410.744 190.78 410.904C191.26 411.048 191.684 411.304 192.052 411.672C192.436 412.024 192.74 412.504 192.964 413.112C193.204 413.704 193.324 414.456 193.324 415.368C193.324 415.72 193.3 416.096 193.252 416.496C193.22 416.896 193.164 417.328 193.084 417.792H187.252C187.284 418.784 187.492 419.544 187.876 420.072C188.26 420.6 188.876 420.864 189.724 420.864C190.236 420.864 190.7 420.784 191.116 420.624C191.548 420.464 191.876 420.296 192.1 420.12L192.988 422.112ZM189.244 413.112C188.636 413.112 188.18 413.36 187.876 413.856C187.572 414.336 187.396 415.016 187.348 415.896H190.66C190.708 414.984 190.612 414.296 190.372 413.832C190.132 413.352 189.756 413.112 189.244 413.112ZM198.045 419.112C198.045 419.672 198.101 420.072 198.213 420.312C198.325 420.552 198.509 420.672 198.765 420.672C198.909 420.672 199.053 420.656 199.197 420.624C199.357 420.592 199.533 420.536 199.725 420.456L199.989 422.76C199.797 422.888 199.469 423.008 199.005 423.12C198.541 423.232 198.069 423.288 197.589 423.288C196.789 423.288 196.189 423.088 195.789 422.688C195.389 422.288 195.189 421.608 195.189 420.648V406.2H198.045V419.112ZM201.217 411H204.073V423H201.217V411ZM200.881 407.616C200.881 407.136 201.033 406.744 201.337 406.44C201.641 406.12 202.073 405.96 202.633 405.96C203.193 405.96 203.641 406.112 203.977 406.416C204.313 406.72 204.481 407.12 204.481 407.616C204.481 408.112 204.313 408.504 203.977 408.792C203.641 409.08 203.193 409.224 202.633 409.224C202.073 409.224 201.641 409.08 201.337 408.792C201.033 408.488 200.881 408.096 200.881 407.616ZM210.016 417.264L210.304 419.16H210.4L210.664 417.24L212.152 411H215.224L211.192 423.12H209.272L205.024 411H208.36L210.016 417.264ZM223.925 422.112C223.525 422.464 222.981 422.752 222.293 422.976C221.605 423.2 220.885 423.312 220.133 423.312C219.301 423.312 218.581 423.168 217.973 422.88C217.381 422.592 216.893 422.176 216.509 421.632C216.125 421.088 215.837 420.432 215.645 419.664C215.469 418.88 215.381 417.992 215.381 417C215.381 414.84 215.805 413.248 216.653 412.224C217.517 411.184 218.709 410.664 220.229 410.664C220.741 410.664 221.237 410.744 221.717 410.904C222.197 411.048 222.621 411.304 222.989 411.672C223.373 412.024 223.677 412.504 223.901 413.112C224.141 413.704 224.261 414.456 224.261 415.368C224.261 415.72 224.237 416.096 224.189 416.496C224.157 416.896 224.101 417.328 224.021 417.792H218.189C218.221 418.784 218.429 419.544 218.813 420.072C219.197 420.6 219.813 420.864 220.661 420.864C221.173 420.864 221.637 420.784 222.053 420.624C222.485 420.464 222.813 420.296 223.037 420.12L223.925 422.112ZM220.181 413.112C219.573 413.112 219.117 413.36 218.813 413.856C218.509 414.336 218.333 415.016 218.285 415.896H221.597C221.645 414.984 221.549 414.296 221.309 413.832C221.069 413.352 220.693 413.112 220.181 413.112ZM231.743 413.832C231.359 413.688 231.007 413.616 230.687 413.616C230.255 413.616 229.879 413.736 229.559 413.976C229.255 414.216 229.047 414.552 228.935 414.984V423H226.079V411H228.263L228.599 412.44H228.695C228.903 411.912 229.199 411.504 229.583 411.216C229.983 410.912 230.439 410.76 230.951 410.76C231.335 410.76 231.711 410.84 232.079 411L231.743 413.832ZM236.95 417.744L237.262 419.616H237.382L237.598 417.72L238.99 411H241.918L238.918 421.824C238.646 422.768 238.39 423.616 238.15 424.368C237.91 425.12 237.654 425.76 237.382 426.288C237.11 426.816 236.798 427.216 236.446 427.488C236.11 427.776 235.702 427.92 235.222 427.92C234.886 427.92 234.558 427.888 234.238 427.824C233.934 427.776 233.67 427.688 233.446 427.56L233.926 425.112C234.134 425.192 234.342 425.224 234.55 425.208C234.774 425.208 234.974 425.128 235.15 424.968C235.342 424.824 235.51 424.592 235.654 424.272C235.798 423.952 235.918 423.528 236.014 423L231.838 411H235.27L236.95 417.744Z" fill="black"/>
<path d="M212.012 451H198.62V425.8H203.156V446.824H212.012V451ZM213.842 434.08C214.562 433.648 215.462 433.3 216.542 433.036C217.622 432.772 218.846 432.64 220.214 432.64C222.254 432.64 223.67 433.168 224.462 434.224C225.278 435.28 225.686 436.78 225.686 438.724C225.686 439.852 225.65 440.968 225.578 442.072C225.53 443.152 225.494 444.22 225.47 445.276C225.446 446.308 225.458 447.316 225.506 448.3C225.578 449.26 225.746 450.172 226.01 451.036H222.518L221.834 448.84H221.69C221.306 449.536 220.766 450.112 220.07 450.568C219.374 451.024 218.498 451.252 217.442 451.252C216.026 451.252 214.91 450.784 214.094 449.848C213.278 448.888 212.87 447.616 212.87 446.032C212.87 443.872 213.638 442.336 215.174 441.424C216.71 440.512 218.786 440.128 221.402 440.272C221.522 438.88 221.426 437.872 221.114 437.248C220.826 436.624 220.19 436.312 219.206 436.312C218.486 436.312 217.742 436.396 216.974 436.564C216.206 436.732 215.522 436.972 214.922 437.284L213.842 434.08ZM218.99 447.58C219.638 447.58 220.166 447.424 220.574 447.112C220.982 446.776 221.282 446.416 221.474 446.032V443.044C220.922 442.972 220.394 442.96 219.89 443.008C219.386 443.056 218.942 443.164 218.558 443.332C218.174 443.5 217.862 443.752 217.622 444.088C217.406 444.4 217.298 444.808 217.298 445.312C217.298 446.056 217.442 446.62 217.73 447.004C218.042 447.388 218.462 447.58 218.99 447.58ZM232.817 433V443.764C232.817 445.18 232.949 446.164 233.213 446.716C233.477 447.268 233.957 447.544 234.653 447.544C235.325 447.544 235.889 447.304 236.345 446.824C236.801 446.32 237.125 445.72 237.317 445.024V433H241.601V445.528C241.601 446.512 241.637 447.484 241.709 448.444C241.781 449.38 241.913 450.232 242.105 451H238.865L238.109 448.552H238.001C237.545 449.392 236.921 450.088 236.129 450.64C235.361 451.192 234.401 451.468 233.249 451.468C232.505 451.468 231.845 451.36 231.269 451.144C230.693 450.952 230.201 450.604 229.793 450.1C229.385 449.596 229.073 448.912 228.857 448.048C228.641 447.16 228.533 446.044 228.533 444.7V433H232.817ZM253.671 451V440.056C253.671 438.736 253.515 437.812 253.203 437.284C252.891 436.756 252.363 436.492 251.619 436.492C250.995 436.492 250.455 436.684 249.999 437.068C249.543 437.452 249.219 437.932 249.027 438.508V451H244.743V433H248.163L248.667 435.088H248.775C249.207 434.392 249.795 433.804 250.539 433.324C251.283 432.82 252.255 432.568 253.455 432.568C254.175 432.568 254.811 432.676 255.363 432.892C255.939 433.108 256.419 433.468 256.803 433.972C257.187 434.452 257.475 435.112 257.667 435.952C257.859 436.768 257.955 437.788 257.955 439.012V451H253.671ZM260.987 425.8C261.419 425.728 261.899 425.68 262.427 425.656C262.979 425.608 263.531 425.572 264.083 425.548C264.659 425.5 265.211 425.476 265.739 425.476C266.267 425.452 266.735 425.44 267.143 425.44C269.135 425.44 270.791 425.752 272.111 426.376C273.455 426.976 274.523 427.84 275.315 428.968C276.131 430.072 276.707 431.404 277.043 432.964C277.379 434.524 277.547 436.264 277.547 438.184C277.547 439.936 277.379 441.616 277.043 443.224C276.731 444.808 276.167 446.212 275.351 447.436C274.535 448.636 273.431 449.596 272.039 450.316C270.647 451.036 268.895 451.396 266.783 451.396C266.471 451.396 266.051 451.384 265.523 451.36C264.995 451.336 264.443 451.3 263.867 451.252C263.291 451.228 262.739 451.192 262.211 451.144C261.683 451.12 261.275 451.084 260.987 451.036V425.8ZM267.611 429.616C267.227 429.616 266.831 429.628 266.423 429.652C266.039 429.652 265.739 429.676 265.523 429.724V447.076C265.595 447.1 265.715 447.124 265.883 447.148C266.075 447.148 266.267 447.16 266.459 447.184C266.675 447.184 266.867 447.196 267.035 447.22C267.227 447.22 267.359 447.22 267.431 447.22C268.511 447.22 269.399 446.968 270.095 446.464C270.791 445.96 271.331 445.288 271.715 444.448C272.123 443.608 272.399 442.648 272.543 441.568C272.711 440.464 272.795 439.312 272.795 438.112C272.795 437.008 272.723 435.94 272.579 434.908C272.459 433.876 272.207 432.976 271.823 432.208C271.463 431.416 270.935 430.792 270.239 430.336C269.567 429.856 268.691 429.616 267.611 429.616ZM280.253 426.052C281.237 425.836 282.293 425.68 283.421 425.584C284.549 425.488 285.521 425.44 286.337 425.44C287.369 425.44 288.377 425.548 289.361 425.764C290.345 425.956 291.209 426.328 291.953 426.88C292.721 427.408 293.333 428.14 293.789 429.076C294.269 429.988 294.509 431.152 294.509 432.568C294.509 434.608 294.125 436.276 293.357 437.572C292.613 438.844 291.581 439.72 290.261 440.2L291.701 441.352L296.345 451H291.125L286.733 441.064L284.789 440.596V451H280.253V426.052ZM284.789 437.5H286.337C287.465 437.5 288.317 437.164 288.893 436.492C289.469 435.796 289.757 434.728 289.757 433.288C289.757 432.208 289.517 431.332 289.037 430.66C288.557 429.964 287.801 429.616 286.769 429.616C286.385 429.616 286.013 429.628 285.653 429.652C285.293 429.676 285.005 429.724 284.789 429.796V437.5ZM301.569 441.64L294.801 425.8H300.201L303.693 435.34L304.053 438.076H304.233L304.629 435.268L308.049 425.8H312.909L306.105 441.604V451H301.569V441.64Z" fill="black"/>
<path d="M156.862 434.072C158.239 435.62 160.289 436.606 162.575 436.611C166.695 436.618 170.018 433.438 169.997 429.507C169.976 425.641 166.727 422.491 162.701 422.38C162.925 421.097 163.043 419.78 163.043 418.435V393.48C163.043 380.841 152.702 370.5 140.063 370.5H131.805C119.166 370.5 108.825 380.841 108.825 393.48V418.435C108.825 419.78 108.943 421.098 109.167 422.381C105.153 422.505 101.92 425.65 101.9 429.507C101.878 433.438 105.201 436.618 109.321 436.611C111.6 436.606 113.643 435.627 115.02 434.088C118.36 437.666 122.821 440.185 127.828 441.067L127.837 452.003C114.393 454.502 106.046 465.297 106.046 476.091L135.948 476.096L165.85 476.091C165.85 465.303 157.512 454.512 144.08 452.006L144.07 441.062C149.073 440.173 153.528 437.651 156.862 434.072Z" fill="#F9FBFC"/>
<path d="M146.217 452.491C146.217 452.491 146.962 459.738 136.057 459.738C125.153 459.738 125.83 452.491 125.83 452.491C113.165 455.432 106.046 465.657 106.046 476.091L135.948 476.096L165.85 476.091C165.851 465.657 158.88 455.433 146.217 452.491Z" fill="#E9C278"/>
<path d="M162.394 422.022C163.321 422.022 164.089 421.291 164.12 420.364C164.129 420.102 164.133 419.838 164.133 419.573L164.156 394.786C164.156 381.628 153.391 370.862 140.233 370.862H131.636C118.478 370.862 107.712 381.628 107.712 394.786L107.689 419.573C107.689 419.802 107.692 420.03 107.699 420.258C107.727 421.244 108.548 422.022 109.534 422.022C110.52 422.022 109.308 396.934 121.021 388.525C123.809 386.523 129.341 398.538 132.657 396.39C135.143 394.779 132.498 390.551 132.498 390.551C132.498 390.551 137.808 396.401 140.235 394.871C142.787 393.26 140.235 388.862 140.235 388.862C140.235 388.862 145.049 396.934 148.353 394.682C151.657 392.429 147.791 388.829 148.087 388.438C148.836 387.448 151.938 388.744 152.724 389.372C163.422 397.932 162.394 422.022 162.394 422.022Z" fill="#E9C278"/>
<path d="M159.546 380.289C158.174 370.501 149.712 362.904 139.56 362.904H132.307C122.156 362.904 113.693 370.501 112.321 380.289H159.546Z" fill="#EAA895"/>
<path d="M123.81 450.735C111.15 454.472 103.43 465.28 103.43 476.093L123.81 476.096V450.735Z" fill="#E9A794"/>
<path d="M148.086 450.735C160.746 454.472 168.466 465.28 168.466 476.093L148.086 476.096V450.735Z" fill="#E9A794"/>
<path d="M160.086 469.753H154.061C153.442 469.753 152.94 469.251 152.94 468.632V466.53C152.94 465.911 153.441 465.409 154.061 465.409H160.086C160.705 465.409 161.207 465.911 161.207 466.53V468.632C161.207 469.251 160.705 469.753 160.086 469.753Z" fill="#F9FBFC"/>
<path d="M109.93 441.371H68.4276C67.6408 441.371 67.0029 442.009 67.0029 442.796V474.671C67.0029 475.458 67.6408 476.096 68.4276 476.096H109.93C110.717 476.096 111.355 475.458 111.355 474.671V442.796C111.355 442.009 110.717 441.371 109.93 441.371Z" fill="#E9C278"/>
<path d="M84.5231 441.371H93.8343V460.792H84.5231V441.371Z" fill="white"/>
<path d="M146.184 408.076C144.698 408.031 143.455 409.266 143.407 410.834C143.359 412.403 144.525 413.711 146.011 413.756C147.497 413.801 148.74 412.567 148.788 410.998C148.836 409.43 147.67 408.121 146.184 408.076Z" fill="#31373D"/>
<path d="M125.973 408.076C124.487 408.031 123.244 409.266 123.196 410.834C123.148 412.403 124.314 413.711 125.8 413.756C127.286 413.801 128.529 412.567 128.577 410.998C128.624 409.43 127.459 408.121 125.973 408.076Z" fill="#31373D"/>
<path d="M143.135 403.389C143.149 403.374 144.592 401.87 146.135 401.926C147.665 401.983 148.98 403.603 149.01 403.64C149.188 403.866 149.453 403.984 149.72 403.984C149.915 403.984 150.112 403.92 150.278 403.79C150.67 403.481 150.738 402.913 150.43 402.521C150.356 402.426 148.585 400.208 146.202 400.119C143.826 400.023 141.896 402.066 141.815 402.153C141.475 402.517 141.495 403.087 141.858 403.428C142.221 403.77 142.792 403.752 143.135 403.389Z" fill="#31373D"/>
<path d="M125.991 400.12C123.605 400.023 121.685 402.067 121.604 402.154C121.264 402.518 121.284 403.088 121.647 403.429C122.01 403.769 122.582 403.752 122.924 403.389C122.938 403.374 124.386 401.871 125.924 401.926C127.454 401.983 128.769 403.603 128.799 403.64C128.977 403.865 129.241 403.983 129.509 403.983C129.704 403.983 129.901 403.92 130.067 403.79C130.459 403.481 130.527 402.913 130.219 402.52C130.144 402.427 128.374 400.209 125.991 400.12Z" fill="#31373D"/>
<path d="M136.565 406.803C137.316 410.426 138.025 413.849 136.279 415.286C135.894 415.603 135.839 416.173 136.156 416.558C136.335 416.775 136.594 416.887 136.854 416.887C137.057 416.887 137.26 416.82 137.429 416.681C140.017 414.55 139.2 410.609 138.336 406.436C138.035 404.985 137.724 403.485 137.561 402.061C137.505 401.565 137.057 401.207 136.56 401.266C136.064 401.323 135.708 401.771 135.765 402.267C135.937 403.772 136.256 405.313 136.565 406.803Z" fill="#31373D"/>
<path d="M132.676 416.435C132.806 416.499 132.944 416.53 133.08 416.53C133.412 416.53 133.731 416.347 133.889 416.03L134.268 415.274C134.491 414.827 134.31 414.284 133.863 414.061C133.417 413.838 132.874 414.018 132.65 414.465L132.272 415.221C132.049 415.668 132.23 416.211 132.676 416.435Z" fill="#31373D"/>
<path d="M141.128 422.035C141.397 421.614 141.275 421.055 140.855 420.786C140.435 420.517 139.875 420.639 139.606 421.059C138.724 422.435 137.386 423.225 135.934 423.225C134.483 423.225 133.145 422.435 132.263 421.059C131.994 420.639 131.434 420.517 131.014 420.786C130.594 421.056 130.471 421.615 130.741 422.035C131.962 423.94 133.855 425.033 135.935 425.033C138.015 425.033 139.907 423.94 141.128 422.035Z" fill="#31373D"/>
<path d="M148.343 449.869C148.069 449.787 147.774 449.841 147.545 450.011C147.317 450.182 147.183 450.45 147.183 450.736V451.816C146.977 451.757 146.771 451.698 146.564 451.643C146.526 451.631 146.488 451.62 146.448 451.613C145.965 451.486 145.478 451.368 144.984 451.264L144.976 441.81C149.568 440.845 153.679 438.558 156.89 435.366C158.388 436.694 160.385 437.51 162.573 437.514H162.591C164.886 437.514 167.021 436.641 168.602 435.054C170.096 433.555 170.912 431.583 170.901 429.502C170.881 425.778 168.2 422.638 164.6 421.736C164.852 421.349 165.007 420.891 165.023 420.393C165.032 420.121 165.037 419.848 165.037 419.574L165.06 394.786C165.06 389.421 163.348 384.448 160.443 380.384C160.451 380.312 160.452 380.238 160.442 380.164C158.99 369.809 150.012 362 139.56 362H132.307C121.855 362 112.878 369.809 111.426 380.164C111.416 380.238 111.417 380.311 111.425 380.384C108.52 384.448 106.809 389.42 106.809 394.785L106.785 419.573C106.785 419.811 106.789 420.048 106.795 420.283C106.811 420.821 106.989 421.322 107.28 421.74C103.688 422.647 101.017 425.784 100.996 429.502C100.985 431.583 101.802 433.555 103.295 435.054C104.877 436.641 107.011 437.515 109.306 437.515H109.324C111.505 437.51 113.496 436.699 114.993 435.379C118.209 438.572 122.326 440.858 126.925 441.817L126.933 451.26C126.18 451.419 125.442 451.606 124.715 451.816V450.736C124.715 450.45 124.58 450.182 124.352 450.011C124.124 449.841 123.828 449.787 123.555 449.869C119.297 451.125 115.474 453.188 112.259 455.929V442.796C112.259 441.512 111.214 440.467 109.93 440.467H68.4276C67.1435 440.467 66.0991 441.512 66.0991 442.796V474.671C66.0991 475.956 67.1435 477 68.4276 477H109.93C110.334 477 110.714 476.896 111.046 476.715V476.998L123.81 477H123.81C123.817 477 123.823 476.998 123.83 476.998L135.949 477L148.067 476.998C148.074 476.998 148.08 477 148.087 477L168.466 476.997C168.966 476.997 169.37 476.592 169.37 476.093C169.37 470.523 167.37 464.881 163.738 460.206C159.916 455.288 154.593 451.713 148.343 449.869ZM169.093 429.512C169.101 431.108 168.472 432.622 167.321 433.778C166.082 435.022 164.402 435.706 162.591 435.706H162.577C160.863 435.703 159.299 435.072 158.124 434.046C158.498 433.614 158.856 433.168 159.199 432.71C159.252 432.682 159.305 432.65 159.354 432.61C161.67 430.743 165.884 429.638 165.926 429.627C166.41 429.502 166.7 429.009 166.575 428.526C166.451 428.042 165.958 427.751 165.475 427.876C165.351 427.908 163.37 428.427 161.283 429.384C162.258 427.503 162.991 425.476 163.438 423.345C166.615 423.785 169.076 426.385 169.093 429.512ZM132.307 363.808H139.56C148.627 363.808 156.475 370.236 158.389 378.981C154.436 377.389 137.266 376.983 135.519 377.005C133.825 376.985 117.321 377.394 113.48 378.97C115.399 370.231 123.244 363.808 132.307 363.808ZM108.616 394.786C108.616 390.408 109.847 386.313 111.978 382.825C112.439 383.829 113.438 384.764 115.536 385.5C119.113 386.756 125.789 387.367 135.945 387.367C146.101 387.367 152.778 386.756 156.355 385.5C158.44 384.768 159.439 383.84 159.904 382.844C162.027 386.328 163.252 390.416 163.252 394.785L163.232 416.286C162.841 408.473 161.015 394.848 153.288 388.667C152.508 388.043 150.163 387.01 148.676 387.197C147.96 387.287 147.568 387.625 147.365 387.893C146.914 388.49 147.284 389.078 147.712 389.759C148.931 391.694 149.313 392.933 147.844 393.935C147.506 394.165 147.144 394.228 146.705 394.131C144.561 393.658 141.867 389.833 141.011 388.399C140.756 387.973 140.206 387.832 139.777 388.083C139.349 388.335 139.204 388.885 139.452 389.315C139.473 389.351 141.51 392.998 139.752 394.107C138.591 394.839 135.181 392.16 133.167 389.943C132.852 389.597 132.326 389.549 131.953 389.83C131.58 390.112 131.484 390.632 131.731 391.029C131.752 391.064 133.848 394.541 132.165 395.631C131.112 396.316 128.798 393.629 127.108 391.67C124.745 388.93 122.513 386.341 120.494 387.791C115.442 391.418 111.911 398.304 109.998 408.257C108.987 413.516 108.721 418.186 108.653 420.501C108.623 420.416 108.605 420.326 108.602 420.232C108.596 420.013 108.593 419.794 108.593 419.575L108.616 394.786ZM109.32 435.706C107.497 435.718 105.818 435.025 104.576 433.778C103.424 432.623 102.795 431.108 102.804 429.512C102.821 426.393 105.27 423.8 108.435 423.35C108.878 425.462 109.601 427.472 110.563 429.339C108.514 428.41 106.593 427.908 106.471 427.876C105.988 427.751 105.495 428.042 105.37 428.526C105.245 429.009 105.536 429.502 106.019 429.627C106.061 429.638 110.275 430.743 112.591 432.61C112.596 432.614 112.601 432.617 112.606 432.62C112.972 433.115 113.356 433.596 113.758 434.06C112.584 435.078 111.026 435.703 109.32 435.706ZM110.143 422.686C110.153 422.676 110.165 422.669 110.176 422.658C110.345 422.487 110.439 422.255 110.437 422.014C110.435 421.768 110.354 397.296 121.548 389.259C122.223 388.774 124.423 391.326 125.738 392.85C127.745 395.178 129.808 397.569 131.783 397.569C132.243 397.569 132.699 397.439 133.148 397.148C134.391 396.342 134.725 395.08 134.607 393.785C136.526 395.328 138.986 396.727 140.716 395.635C141.705 395.011 142.146 394.092 142.25 393.088C143.432 394.378 144.865 395.576 146.314 395.896C147.235 396.1 148.115 395.938 148.862 395.428C151.889 393.364 150.202 390.339 149.367 388.995C150.219 389.116 151.622 389.649 152.158 390.078C162.374 398.251 161.501 421.747 161.491 421.984C161.481 422.227 161.569 422.463 161.735 422.64C159.766 432.808 150.798 440.511 140.063 440.511H131.805C121.086 440.511 112.13 432.831 110.143 422.686ZM128.003 452.891C128.431 452.812 128.742 452.438 128.742 452.002L128.733 442.12C129.739 442.25 130.764 442.319 131.805 442.319H140.063C141.115 442.319 142.151 442.249 143.168 442.116L143.176 452.007C143.177 452.442 143.487 452.815 143.915 452.894C144.4 452.985 144.875 453.09 145.344 453.202C144.835 456.959 140.244 458.68 135.959 458.68C131.672 458.68 127.079 456.957 126.574 453.197C127.043 453.086 127.517 452.982 128.003 452.891ZM85.4272 442.275H92.9305V459.887H85.4272V442.275ZM110.451 474.671C110.451 474.958 110.217 475.192 109.93 475.192H68.4276C68.1406 475.192 67.907 474.958 67.907 474.671V442.796C67.907 442.509 68.1406 442.275 68.4276 442.275H83.6193V460.792C83.6193 461.291 84.024 461.696 84.5233 461.696H93.8345C94.3338 461.696 94.7386 461.291 94.7386 460.792V442.275H109.93C110.217 442.275 110.451 442.509 110.451 442.796V474.671H110.451ZM122.906 475.192L112.198 475.19C112.236 475.023 112.259 474.85 112.259 474.671V458.389C115.19 455.592 118.811 453.363 122.906 451.971V475.192ZM124.714 475.19V453.701C124.749 453.691 124.785 453.681 124.82 453.671C125.523 457.738 129.905 460.487 135.959 460.487C142.011 460.487 146.391 457.741 147.098 453.676C147.126 453.685 147.155 453.692 147.183 453.701V475.19L135.949 475.192L124.714 475.19ZM148.991 475.192V451.971C159.672 455.604 167.129 464.922 167.544 475.189L148.991 475.192Z" fill="#31373D"/>
</g>
<defs>
<clipPath id="clip0">
<rect width="414" height="896" fill="white"/>
</clipPath>
<clipPath id="clip1">
<rect width="764" height="764" fill="white" transform="translate(-175 140)"/>
</clipPath>
</defs>
</svg>
